<svg xmlns="http://www.w3.org/2000/svg" xmlns:xlink="http://www.w3.org/1999/xlink" width="2000" zoomAndPan="magnify" viewBox="0 0 1500 1499.999933" height="2000" preserveAspectRatio="xMidYMid meet" version="1.0"><defs><clipPath id="81e93d08b2"><path d="M 85 36.183594 L 1415 36.183594 L 1415 1475.433594 L 85 1475.433594 Z M 85 36.183594 " clip-rule="nonzero"/></clipPath></defs><g clip-path="url(#81e93d08b2)"><path fill="#ffffff" d="M 1399.484375 1245.175781 L 1224.792969 865.738281 C 1218.296875 851.648438 1204.195312 842.609375 1188.679688 842.609375 L 829.808594 842.609375 C 817.703125 842.609375 809.605469 830.121094 814.558594 819.058594 L 900 628.5 C 905.910156 615.296875 924.597656 615.34375 930.476562 628.5 L 949.371094 670.964844 C 952.664062 678.3125 959.953125 683.058594 968.023438 683.058594 L 1110.320312 683.058594 C 1125.15625 683.058594 1135.027344 667.746094 1128.90625 654.253906 L 990.6875 348.703125 C 987.976562 342.734375 982.011719 338.917969 975.472656 338.917969 L 857.582031 338.917969 C 851.003906 338.917969 845.089844 342.734375 842.371094 348.703125 L 460.726562 1192.191406 C 455.730469 1203.238281 463.796875 1215.742188 475.945312 1215.742188 L 626.289062 1215.742188 C 632.859375 1215.742188 638.832031 1211.886719 641.503906 1205.914062 L 725.578125 1018.5625 C 728.253906 1012.550781 734.214844 1008.695312 740.796875 1008.695312 L 1088.664062 1008.695312 C 1095.285156 1008.695312 1101.296875 1012.550781 1103.976562 1018.605469 L 1213.667969 1260.238281 C 1222.140625 1278.917969 1208.488281 1300.128906 1187.964844 1300.128906 L 312.734375 1300.128906 C 292.15625 1300.128906 278.496094 1278.800781 287.101562 1260.109375 L 754.597656 244.65625 C 763.882812 224.480469 784.058594 211.550781 806.253906 211.550781 L 920.089844 211.550781 C 943.214844 211.550781 961.96875 192.804688 961.96875 169.675781 L 961.96875 78.015625 C 961.96875 54.886719 943.214844 36.121094 920.089844 36.121094 L 761.933594 36.121094 C 698.425781 36.121094 640.230469 73.40625 613.699219 131.117188 L 132.417969 1178.507812 L 102.066406 1241.96875 C 77.683594 1292.804688 81.105469 1351.652344 111.148438 1399.371094 C 141.1875 1447.042969 192.808594 1475.539062 249.164062 1475.539062 L 1250.84375 1475.539062 C 1306.492188 1475.539062 1357.777344 1447.605469 1387.941406 1400.855469 C 1418.109375 1354.070312 1422.417969 1295.875 1399.484375 1245.175781 " fill-opacity="1" fill-rule="nonzero"/></g></svg>