<svg xmlns="http://www.w3.org/2000/svg" xmlns:xlink="http://www.w3.org/1999/xlink" width="2000" zoomAndPan="magnify" viewBox="0 0 1500 1499.999933" height="2000" preserveAspectRatio="xMidYMid meet" version="1.0"><defs><clipPath id="4a9ba78e62"><path d="M 28.503906 53 L 1470 53 L 1470 1447 L 28.503906 1447 Z M 28.503906 53 " clip-rule="nonzero"/></clipPath></defs><path fill="#a30404" d="M 829.734375 1201.050781 C 783.621094 1233.714844 719.253906 1223.144531 686.589844 1177.03125 C 653.925781 1130.917969 664.492188 1067.511719 710.609375 1034.847656 C 756.722656 1002.183594 820.128906 1012.75 852.792969 1058.863281 C 885.457031 1104.980469 874.890625 1168.386719 829.734375 1201.050781 Z M 829.734375 1201.050781 " fill-opacity="1" fill-rule="nonzero"/><g clip-path="url(#4a9ba78e62)"><path fill="#a30404" d="M 525.191406 809.078125 C 520.386719 799.472656 521.347656 786.984375 528.074219 778.335938 L 575.148438 713.007812 C 581.871094 703.402344 582.832031 689.953125 577.070312 679.382812 C 557.855469 645.757812 536.71875 612.132812 511.742188 577.546875 C 489.644531 546.804688 467.546875 517.984375 444.492188 491.085938 C 436.804688 481.476562 424.316406 477.632812 412.789062 481.476562 L 336.890625 504.535156 C 326.324219 507.417969 314.792969 505.496094 307.109375 496.847656 C 290.777344 480.515625 274.445312 464.183594 258.113281 450.734375 L 584.753906 218.242188 C 635.671875 262.433594 694.277344 324.882812 752.878906 406.542969 C 814.363281 493.003906 855.675781 572.746094 879.691406 637.113281 L 554.011719 868.644531 L 552.089844 865.761719 C 543.445312 848.46875 534.796875 829.253906 525.191406 809.078125 Z M 680.824219 150.03125 C 692.355469 141.386719 708.6875 142.347656 719.253906 152.914062 C 768.25 198.066406 820.128906 257.632812 868.164062 325.839844 C 919.082031 397.894531 959.433594 468.988281 986.332031 533.355469 C 992.097656 546.804688 987.292969 561.214844 975.765625 569.863281 L 912.355469 615.015625 C 883.535156 541.042969 837.421875 459.378906 784.582031 385.40625 C 734.625 314.3125 675.0625 247.0625 617.417969 196.144531 Z M 986.332031 1146.289062 C 978.644531 1203.933594 947.902344 1258.691406 896.984375 1295.199219 C 796.109375 1367.253906 653.925781 1340.351562 586.675781 1234.675781 C 528.074219 1141.484375 548.246094 1016.59375 634.710938 948.382812 C 687.550781 906.109375 753.839844 892.660156 814.363281 905.152344 C 869.125 916.679688 926.765625 902.269531 972.882812 870.566406 L 1160.21875 737.027344 L 1392.710938 571.785156 C 1443.628906 536.238281 1471.492188 476.671875 1469.570312 415.1875 C 1466.6875 343.132812 1459.960938 252.828125 1450.355469 209.59375 C 1282.230469 126.972656 1092.011719 75.097656 893.144531 59.726562 L 892.183594 59.726562 C 846.066406 55.882812 798.992188 53.960938 750.957031 53.960938 C 501.171875 53.960938 260.035156 107.761719 52.519531 210.554688 C 36.1875 284.53125 28.503906 361.386719 28.503906 439.207031 C 28.503906 559.292969 48.675781 676.5 86.144531 786.023438 L 428.160156 537.199219 C 445.453125 558.332031 461.785156 580.429688 478.117188 602.527344 C 495.410156 626.542969 511.742188 651.523438 527.113281 676.5 L 297.5 839.820312 C 212 900.347656 195.667969 1021.398438 260.996094 1103.058594 C 384.925781 1257.730469 553.050781 1378.78125 750.957031 1446.03125 C 1079.519531 1334.589844 1324.503906 1075.195312 1424.417969 756.242188 L 1071.835938 1007.945312 C 1025.722656 1040.609375 993.058594 1090.566406 986.332031 1146.289062 Z M 986.332031 1146.289062 " fill-opacity="1" fill-rule="nonzero"/></g><path fill="#a30404" d="M 658.730469 549.6875 C 636.632812 561.214844 607.8125 556.414062 590.519531 538.160156 C 563.617188 509.335938 573.226562 462.261719 610.695312 446.890625 C 630.867188 439.207031 653.925781 443.046875 669.296875 457.460938 C 699.078125 484.359375 692.355469 530.472656 658.730469 549.6875 Z M 658.730469 549.6875 " fill-opacity="1" fill-rule="nonzero"/></svg>