<svg xmlns="http://www.w3.org/2000/svg" xmlns:xlink="http://www.w3.org/1999/xlink" width="2000" zoomAndPan="magnify" viewBox="0 0 1500 1499.999933" height="2000" preserveAspectRatio="xMidYMid meet" version="1.0"><defs><clipPath id="508f3ac397"><path d="M 74 24.183594 L 1403 24.183594 L 1403 1463.433594 L 74 1463.433594 Z M 74 24.183594 " clip-rule="nonzero"/></clipPath></defs><g clip-path="url(#508f3ac397)"><path fill="#000000" d="M 1388.234375 1233.179688 L 1213.542969 853.738281 C 1207.046875 839.648438 1192.945312 830.609375 1177.429688 830.609375 L 818.558594 830.609375 C 806.453125 830.609375 798.355469 818.121094 803.308594 807.058594 L 888.75 616.5 C 894.660156 603.300781 913.347656 603.34375 919.226562 616.5 L 938.121094 658.964844 C 941.414062 666.3125 948.703125 671.058594 956.773438 671.058594 L 1099.070312 671.058594 C 1113.90625 671.058594 1123.777344 655.746094 1117.65625 642.253906 L 979.4375 336.703125 C 976.726562 330.734375 970.761719 326.917969 964.222656 326.917969 L 846.332031 326.917969 C 839.753906 326.917969 833.839844 330.734375 831.121094 336.703125 L 449.476562 1180.191406 C 444.480469 1191.238281 452.546875 1203.742188 464.695312 1203.742188 L 615.039062 1203.742188 C 621.609375 1203.742188 627.582031 1199.886719 630.253906 1193.917969 L 714.328125 1006.5625 C 717.003906 1000.550781 722.964844 996.695312 729.546875 996.695312 L 1077.414062 996.695312 C 1084.035156 996.695312 1090.046875 1000.550781 1092.726562 1006.609375 L 1202.417969 1248.238281 C 1210.890625 1266.917969 1197.238281 1288.128906 1176.714844 1288.128906 L 301.484375 1288.128906 C 280.90625 1288.128906 267.246094 1266.800781 275.851562 1248.109375 L 743.347656 232.65625 C 752.632812 212.484375 772.808594 199.550781 795.003906 199.550781 L 908.839844 199.550781 C 931.964844 199.550781 950.71875 180.804688 950.71875 157.675781 L 950.71875 66.015625 C 950.71875 42.886719 931.964844 24.121094 908.839844 24.121094 L 750.683594 24.121094 C 687.175781 24.121094 628.980469 61.40625 602.449219 119.117188 L 121.167969 1166.507812 L 90.816406 1229.972656 C 66.433594 1280.804688 69.855469 1339.652344 99.898438 1387.371094 C 129.9375 1435.042969 181.558594 1463.539062 237.914062 1463.539062 L 1239.59375 1463.539062 C 1295.242188 1463.539062 1346.527344 1435.605469 1376.691406 1388.855469 C 1406.859375 1342.070312 1411.167969 1283.875 1388.234375 1233.179688 " fill-opacity="1" fill-rule="nonzero"/></g></svg>