<svg xmlns="http://www.w3.org/2000/svg" xmlns:xlink="http://www.w3.org/1999/xlink" width="1600" zoomAndPan="magnify" viewBox="0 0 1200 262.499992" height="350" preserveAspectRatio="xMidYMid meet" version="1.0"><defs><g/><clipPath id="56bee8d17d"><rect x="0" width="1134" y="0" height="155"/></clipPath><clipPath id="87e6a9cc18"><path d="M 1135 16 L 1198.859375 16 L 1198.859375 246 L 1135 246 Z M 1135 16 " clip-rule="nonzero"/></clipPath><clipPath id="019387ef2e"><rect x="0" width="64" y="0" height="230"/></clipPath></defs><g transform="matrix(1, 0, 0, 1, 4, 63)"><g clip-path="url(#56bee8d17d)"><g fill="#ffffff" fill-opacity="1"><g transform="translate(5.463439, 111.019598)"><g><path d="M 58.546875 -100.84375 L 99.25 0 L 74.5625 0 L 67.109375 -20.171875 L 28.71875 -20.171875 L 21.265625 0 L -3.421875 0 L 37.28125 -100.84375 Z M 59.28125 -40.34375 L 48.03125 -69.671875 L 47.796875 -69.671875 L 36.546875 -40.34375 Z M 59.28125 -40.34375 "/></g></g></g><g fill="#ffffff" fill-opacity="1"><g transform="translate(101.288456, 111.019598)"><g><path d="M 84.828125 -100.84375 L 84.828125 -35.8125 C 84.828125 -23.425781 81.484375 -14.054688 74.796875 -7.703125 C 68.117188 -1.347656 58.34375 1.828125 45.46875 1.828125 C 32.59375 1.828125 22.8125 -1.347656 16.125 -7.703125 C 9.445312 -14.054688 6.109375 -23.425781 6.109375 -35.8125 L 6.109375 -100.84375 L 29.09375 -100.84375 L 29.09375 -42.53125 C 29.09375 -34.382812 30.375 -28.722656 32.9375 -25.546875 C 35.507812 -22.367188 39.6875 -20.78125 45.46875 -20.78125 C 51.257812 -20.78125 55.4375 -22.367188 58 -25.546875 C 60.5625 -28.722656 61.84375 -34.382812 61.84375 -42.53125 L 61.84375 -100.84375 Z M 84.828125 -100.84375 "/></g></g></g><g fill="#ffffff" fill-opacity="1"><g transform="translate(192.224432, 111.019598)"><g><path d="M 0.984375 -80.671875 L 0.984375 -100.84375 L 71.875 -100.84375 L 71.875 -80.671875 L 47.921875 -80.671875 L 47.921875 0 L 24.9375 0 L 24.9375 -80.671875 Z M 0.984375 -80.671875 "/></g></g></g><g fill="#ffffff" fill-opacity="1"><g transform="translate(265.071012, 111.019598)"><g><path d="M 2.8125 -50.484375 C 2.8125 -65.066406 7.78125 -77.410156 17.71875 -87.515625 C 27.664062 -97.617188 39.644531 -102.671875 53.65625 -102.671875 C 67.757812 -102.671875 79.738281 -97.640625 89.59375 -87.578125 C 99.457031 -77.515625 104.390625 -65.148438 104.390625 -50.484375 C 104.390625 -35.734375 99.539062 -23.328125 89.84375 -13.265625 C 80.144531 -3.203125 68.082031 1.828125 53.65625 1.828125 C 38.90625 1.828125 26.742188 -3.160156 17.171875 -13.140625 C 7.597656 -23.117188 2.8125 -35.566406 2.8125 -50.484375 Z M 27.625 -50.484375 C 27.625 -45.179688 28.4375 -40.347656 30.0625 -35.984375 C 31.695312 -31.628906 34.550781 -27.941406 38.625 -24.921875 C 42.695312 -21.910156 47.707031 -20.40625 53.65625 -20.40625 C 62.21875 -20.40625 68.675781 -23.335938 73.03125 -29.203125 C 77.394531 -35.078125 79.578125 -42.171875 79.578125 -50.484375 C 79.578125 -58.710938 77.351562 -65.78125 72.90625 -71.6875 C 68.46875 -77.59375 62.050781 -80.546875 53.65625 -80.546875 C 45.34375 -80.546875 38.925781 -77.59375 34.40625 -71.6875 C 29.882812 -65.78125 27.625 -58.710938 27.625 -50.484375 Z M 27.625 -50.484375 "/></g></g></g><g fill="#961111" fill-opacity="1"><g transform="translate(372.274956, 111.019598)"><g><path d="M 61 -20.78125 C 64.5 -20.78125 67.898438 -21.304688 71.203125 -22.359375 C 74.503906 -23.421875 76.925781 -24.441406 78.46875 -25.421875 L 80.796875 -27.015625 L 90.578125 -7.453125 C 90.253906 -7.210938 89.804688 -6.890625 89.234375 -6.484375 C 88.660156 -6.078125 87.332031 -5.320312 85.25 -4.21875 C 83.175781 -3.113281 80.957031 -2.15625 78.59375 -1.34375 C 76.226562 -0.53125 73.128906 0.195312 69.296875 0.84375 C 65.472656 1.5 61.523438 1.828125 57.453125 1.828125 C 48.078125 1.828125 39.191406 -0.472656 30.796875 -5.078125 C 22.410156 -9.679688 15.648438 -16.015625 10.515625 -24.078125 C 5.378906 -32.148438 2.8125 -40.867188 2.8125 -50.234375 C 2.8125 -57.328125 4.316406 -64.132812 7.328125 -70.65625 C 10.347656 -77.175781 14.363281 -82.753906 19.375 -87.390625 C 24.382812 -92.035156 30.226562 -95.742188 36.90625 -98.515625 C 43.59375 -101.285156 50.441406 -102.671875 57.453125 -102.671875 C 63.972656 -102.671875 69.984375 -101.894531 75.484375 -100.34375 C 80.984375 -98.800781 84.875 -97.253906 87.15625 -95.703125 L 90.578125 -93.390625 L 80.796875 -73.828125 C 80.222656 -74.316406 79.363281 -74.90625 78.21875 -75.59375 C 77.082031 -76.289062 74.800781 -77.207031 71.375 -78.34375 C 67.957031 -79.488281 64.5 -80.0625 61 -80.0625 C 55.457031 -80.0625 50.484375 -79.164062 46.078125 -77.375 C 41.679688 -75.582031 38.195312 -73.21875 35.625 -70.28125 C 33.0625 -67.351562 31.109375 -64.195312 29.765625 -60.8125 C 28.421875 -57.425781 27.75 -53.984375 27.75 -50.484375 C 27.75 -42.828125 30.617188 -35.960938 36.359375 -29.890625 C 42.109375 -23.816406 50.320312 -20.78125 61 -20.78125 Z M 61 -20.78125 "/></g></g></g><g fill="#961111" fill-opacity="1"><g transform="translate(464.310973, 111.019598)"><g><path d="M 2.8125 -50.484375 C 2.8125 -65.066406 7.78125 -77.410156 17.71875 -87.515625 C 27.664062 -97.617188 39.644531 -102.671875 53.65625 -102.671875 C 67.757812 -102.671875 79.738281 -97.640625 89.59375 -87.578125 C 99.457031 -77.515625 104.390625 -65.148438 104.390625 -50.484375 C 104.390625 -35.734375 99.539062 -23.328125 89.84375 -13.265625 C 80.144531 -3.203125 68.082031 1.828125 53.65625 1.828125 C 38.90625 1.828125 26.742188 -3.160156 17.171875 -13.140625 C 7.597656 -23.117188 2.8125 -35.566406 2.8125 -50.484375 Z M 27.625 -50.484375 C 27.625 -45.179688 28.4375 -40.347656 30.0625 -35.984375 C 31.695312 -31.628906 34.550781 -27.941406 38.625 -24.921875 C 42.695312 -21.910156 47.707031 -20.40625 53.65625 -20.40625 C 62.21875 -20.40625 68.675781 -23.335938 73.03125 -29.203125 C 77.394531 -35.078125 79.578125 -42.171875 79.578125 -50.484375 C 79.578125 -58.710938 77.351562 -65.78125 72.90625 -71.6875 C 68.46875 -77.59375 62.050781 -80.546875 53.65625 -80.546875 C 45.34375 -80.546875 38.925781 -77.59375 34.40625 -71.6875 C 29.882812 -65.78125 27.625 -58.710938 27.625 -50.484375 Z M 27.625 -50.484375 "/></g></g></g><g fill="#961111" fill-opacity="1"><g transform="translate(571.502977, 111.019598)"><g><path d="M 30.3125 -62.578125 L 30.3125 0 L 7.328125 0 L 7.328125 -100.84375 L 30.3125 -100.84375 L 70.40625 -38.265625 L 70.65625 -38.265625 L 70.65625 -100.84375 L 93.625 -100.84375 L 93.625 0 L 70.65625 0 L 30.5625 -62.578125 Z M 30.3125 -62.578125 "/></g></g></g><g fill="#961111" fill-opacity="1"><g transform="translate(672.46146, 111.019598)"><g><path d="M 61 -20.78125 C 64.5 -20.78125 67.898438 -21.304688 71.203125 -22.359375 C 74.503906 -23.421875 76.925781 -24.441406 78.46875 -25.421875 L 80.796875 -27.015625 L 90.578125 -7.453125 C 90.253906 -7.210938 89.804688 -6.890625 89.234375 -6.484375 C 88.660156 -6.078125 87.332031 -5.320312 85.25 -4.21875 C 83.175781 -3.113281 80.957031 -2.15625 78.59375 -1.34375 C 76.226562 -0.53125 73.128906 0.195312 69.296875 0.84375 C 65.472656 1.5 61.523438 1.828125 57.453125 1.828125 C 48.078125 1.828125 39.191406 -0.472656 30.796875 -5.078125 C 22.410156 -9.679688 15.648438 -16.015625 10.515625 -24.078125 C 5.378906 -32.148438 2.8125 -40.867188 2.8125 -50.234375 C 2.8125 -57.328125 4.316406 -64.132812 7.328125 -70.65625 C 10.347656 -77.175781 14.363281 -82.753906 19.375 -87.390625 C 24.382812 -92.035156 30.226562 -95.742188 36.90625 -98.515625 C 43.59375 -101.285156 50.441406 -102.671875 57.453125 -102.671875 C 63.972656 -102.671875 69.984375 -101.894531 75.484375 -100.34375 C 80.984375 -98.800781 84.875 -97.253906 87.15625 -95.703125 L 90.578125 -93.390625 L 80.796875 -73.828125 C 80.222656 -74.316406 79.363281 -74.90625 78.21875 -75.59375 C 77.082031 -76.289062 74.800781 -77.207031 71.375 -78.34375 C 67.957031 -79.488281 64.5 -80.0625 61 -80.0625 C 55.457031 -80.0625 50.484375 -79.164062 46.078125 -77.375 C 41.679688 -75.582031 38.195312 -73.21875 35.625 -70.28125 C 33.0625 -67.351562 31.109375 -64.195312 29.765625 -60.8125 C 28.421875 -57.425781 27.75 -53.984375 27.75 -50.484375 C 27.75 -42.828125 30.617188 -35.960938 36.359375 -29.890625 C 42.109375 -23.816406 50.320312 -20.78125 61 -20.78125 Z M 61 -20.78125 "/></g></g></g><g fill="#961111" fill-opacity="1"><g transform="translate(764.497489, 111.019598)"><g><path d="M 30.3125 -100.84375 L 30.3125 0 L 7.328125 0 L 7.328125 -100.84375 Z M 30.3125 -100.84375 "/></g></g></g><g fill="#961111" fill-opacity="1"><g transform="translate(802.143033, 111.019598)"><g><path d="M 65.03125 -100.84375 L 65.03125 -80.671875 L 30.3125 -80.671875 L 30.3125 -60.625 L 63.5625 -60.625 L 63.5625 -40.453125 L 30.3125 -40.453125 L 30.3125 -20.171875 L 65.03125 -20.171875 L 65.03125 0 L 7.328125 0 L 7.328125 -100.84375 Z M 65.03125 -100.84375 "/></g></g></g><g fill="#961111" fill-opacity="1"><g transform="translate(873.03396, 111.019598)"><g><path d="M 7.328125 -100.84375 L 43.390625 -100.84375 C 53.085938 -100.84375 60.992188 -98.253906 67.109375 -93.078125 C 73.222656 -87.898438 76.28125 -80.503906 76.28125 -70.890625 C 76.28125 -63.472656 74.425781 -57.257812 70.71875 -52.25 C 67.007812 -47.238281 61.972656 -43.71875 55.609375 -41.6875 L 90.328125 0 L 61.109375 0 L 30.3125 -39.84375 L 30.3125 0 L 7.328125 0 Z M 30.3125 -56.109375 L 33 -56.109375 C 35.125 -56.109375 36.914062 -56.144531 38.375 -56.21875 C 39.84375 -56.300781 41.515625 -56.585938 43.390625 -57.078125 C 45.265625 -57.566406 46.769531 -58.257812 47.90625 -59.15625 C 49.050781 -60.050781 50.03125 -61.351562 50.84375 -63.0625 C 51.664062 -64.78125 52.078125 -66.859375 52.078125 -69.296875 C 52.078125 -71.742188 51.664062 -73.820312 50.84375 -75.53125 C 50.03125 -77.25 49.050781 -78.554688 47.90625 -79.453125 C 46.769531 -80.347656 45.265625 -81.039062 43.390625 -81.53125 C 41.515625 -82.019531 39.84375 -82.304688 38.375 -82.390625 C 36.914062 -82.472656 35.125 -82.515625 33 -82.515625 L 30.3125 -82.515625 Z M 30.3125 -56.109375 "/></g></g></g><g fill="#961111" fill-opacity="1"><g transform="translate(960.547637, 111.019598)"><g><path d="M 98.515625 -56.46875 L 98.515625 -34.59375 C 95.910156 -22.613281 90.207031 -13.546875 81.40625 -7.390625 C 72.601562 -1.242188 62.785156 1.828125 51.953125 1.828125 C 38.335938 1.828125 26.742188 -3.257812 17.171875 -13.4375 C 7.597656 -23.625 2.8125 -35.929688 2.8125 -50.359375 C 2.8125 -65.023438 7.492188 -77.410156 16.859375 -87.515625 C 26.234375 -97.617188 37.929688 -102.671875 51.953125 -102.671875 C 68.328125 -102.671875 81.28125 -96.925781 90.8125 -85.4375 L 75.78125 -68.9375 C 70.40625 -77.570312 62.910156 -81.890625 53.296875 -81.890625 C 46.203125 -81.890625 40.148438 -78.8125 35.140625 -72.65625 C 30.128906 -66.507812 27.625 -59.078125 27.625 -50.359375 C 27.625 -41.804688 30.128906 -34.492188 35.140625 -28.421875 C 40.148438 -22.347656 46.203125 -19.3125 53.296875 -19.3125 C 59.160156 -19.3125 64.269531 -21.082031 68.625 -24.625 C 72.988281 -28.175781 75.171875 -32.882812 75.171875 -38.75 L 51.953125 -38.75 L 51.953125 -56.46875 Z M 98.515625 -56.46875 "/></g></g></g><g fill="#961111" fill-opacity="1"><g transform="translate(1061.872822, 111.019598)"><g><path d="M 65.03125 -100.84375 L 65.03125 -80.671875 L 30.3125 -80.671875 L 30.3125 -60.625 L 63.5625 -60.625 L 63.5625 -40.453125 L 30.3125 -40.453125 L 30.3125 -20.171875 L 65.03125 -20.171875 L 65.03125 0 L 7.328125 0 L 7.328125 -100.84375 Z M 65.03125 -100.84375 "/></g></g></g></g></g><g clip-path="url(#87e6a9cc18)"><g transform="matrix(1, 0, 0, 1, 1135, 16)"><g clip-path="url(#019387ef2e)"><g fill="#961111" fill-opacity="1"><g transform="translate(0.161558, 165.059104)"><g><path d="M 31.75 -39.0625 C 37.59375 -39.0625 42.550781 -37.019531 46.625 -32.9375 C 50.707031 -28.863281 52.75 -23.90625 52.75 -18.0625 C 52.75 -12.34375 50.707031 -7.445312 46.625 -3.375 C 42.550781 0.695312 37.59375 2.734375 31.75 2.734375 C 26.03125 2.734375 21.132812 0.695312 17.0625 -3.375 C 12.988281 -7.445312 10.953125 -12.34375 10.953125 -18.0625 C 10.953125 -23.90625 12.988281 -28.863281 17.0625 -32.9375 C 21.132812 -37.019531 26.03125 -39.0625 31.75 -39.0625 Z M 31.75 -39.0625 "/></g></g></g></g></g></g></svg>