<svg xmlns="http://www.w3.org/2000/svg" xmlns:xlink="http://www.w3.org/1999/xlink" width="1600" zoomAndPan="magnify" viewBox="0 0 1200 262.499992" height="350" preserveAspectRatio="xMidYMid meet" version="1.0"><defs><g/><clipPath id="f5c6f1df3d"><rect x="0" width="1130" y="0" height="154"/></clipPath><clipPath id="8ddfe88a51"><rect x="0" width="65" y="0" height="229"/></clipPath></defs><g transform="matrix(1, 0, 0, 1, 4, 68)"><g clip-path="url(#f5c6f1df3d)"><g fill="#000000" fill-opacity="1"><g transform="translate(5.4372, 109.981761)"><g><path d="M 58.359375 -100.515625 L 98.9375 0 L 74.328125 0 L 66.890625 -20.109375 L 28.640625 -20.109375 L 21.203125 0 L -3.40625 0 L 37.15625 -100.515625 Z M 59.09375 -40.203125 L 47.890625 -69.453125 L 47.640625 -69.453125 L 36.4375 -40.203125 Z M 59.09375 -40.203125 "/></g></g></g><g fill="#000000" fill-opacity="1"><g transform="translate(100.960103, 109.981761)"><g><path d="M 84.5625 -100.515625 L 84.5625 -35.703125 C 84.5625 -23.359375 81.226562 -14.015625 74.5625 -7.671875 C 67.90625 -1.335938 58.160156 1.828125 45.328125 1.828125 C 32.492188 1.828125 22.742188 -1.335938 16.078125 -7.671875 C 9.421875 -14.015625 6.09375 -23.359375 6.09375 -35.703125 L 6.09375 -100.515625 L 29 -100.515625 L 29 -42.40625 C 29 -34.28125 30.273438 -28.632812 32.828125 -25.46875 C 35.390625 -22.300781 39.554688 -20.71875 45.328125 -20.71875 C 51.097656 -20.71875 55.257812 -22.300781 57.8125 -25.46875 C 60.375 -28.632812 61.65625 -34.28125 61.65625 -42.40625 L 61.65625 -100.515625 Z M 84.5625 -100.515625 "/></g></g></g><g fill="#000000" fill-opacity="1"><g transform="translate(191.60938, 109.981761)"><g><path d="M 0.96875 -80.421875 L 0.96875 -100.515625 L 71.640625 -100.515625 L 71.640625 -80.421875 L 47.765625 -80.421875 L 47.765625 0 L 24.859375 0 L 24.859375 -80.421875 Z M 0.96875 -80.421875 "/></g></g></g><g fill="#000000" fill-opacity="1"><g transform="translate(264.226292, 109.981761)"><g><path d="M 2.796875 -50.328125 C 2.796875 -64.859375 7.75 -77.160156 17.65625 -87.234375 C 27.570312 -97.304688 39.515625 -102.34375 53.484375 -102.34375 C 67.535156 -102.34375 79.472656 -97.328125 89.296875 -87.296875 C 99.128906 -77.265625 104.046875 -64.941406 104.046875 -50.328125 C 104.046875 -35.617188 99.210938 -23.25 89.546875 -13.21875 C 79.890625 -3.1875 67.867188 1.828125 53.484375 1.828125 C 38.785156 1.828125 26.660156 -3.144531 17.109375 -13.09375 C 7.566406 -23.050781 2.796875 -35.460938 2.796875 -50.328125 Z M 27.53125 -50.328125 C 27.53125 -45.046875 28.34375 -40.226562 29.96875 -35.875 C 31.59375 -31.53125 34.4375 -27.851562 38.5 -24.84375 C 42.5625 -21.84375 47.554688 -20.34375 53.484375 -20.34375 C 62.015625 -20.34375 68.453125 -23.265625 72.796875 -29.109375 C 77.148438 -34.960938 79.328125 -42.035156 79.328125 -50.328125 C 79.328125 -58.523438 77.113281 -65.566406 72.6875 -71.453125 C 68.257812 -77.347656 61.859375 -80.296875 53.484375 -80.296875 C 45.203125 -80.296875 38.804688 -77.347656 34.296875 -71.453125 C 29.785156 -65.566406 27.53125 -58.523438 27.53125 -50.328125 Z M 27.53125 -50.328125 "/></g></g></g><g fill="#961111" fill-opacity="1"><g transform="translate(371.092247, 109.981761)"><g><path d="M 60.796875 -20.71875 C 64.296875 -20.71875 67.6875 -21.242188 70.96875 -22.296875 C 74.257812 -23.347656 76.675781 -24.363281 78.21875 -25.34375 L 80.53125 -26.921875 L 90.28125 -7.4375 C 89.957031 -7.1875 89.507812 -6.859375 88.9375 -6.453125 C 88.375 -6.046875 87.054688 -5.296875 84.984375 -4.203125 C 82.910156 -3.109375 80.695312 -2.15625 78.34375 -1.34375 C 75.988281 -0.53125 72.898438 0.195312 69.078125 0.84375 C 65.265625 1.5 61.328125 1.828125 57.265625 1.828125 C 47.921875 1.828125 39.066406 -0.460938 30.703125 -5.046875 C 22.335938 -9.640625 15.59375 -15.957031 10.46875 -24 C 5.351562 -32.039062 2.796875 -40.734375 2.796875 -50.078125 C 2.796875 -57.140625 4.296875 -63.921875 7.296875 -70.421875 C 10.304688 -76.921875 14.3125 -82.484375 19.3125 -87.109375 C 24.3125 -91.742188 30.140625 -95.441406 36.796875 -98.203125 C 43.453125 -100.960938 50.273438 -102.34375 57.265625 -102.34375 C 63.765625 -102.34375 69.753906 -101.570312 75.234375 -100.03125 C 80.722656 -98.488281 84.601562 -96.945312 86.875 -95.40625 L 90.28125 -93.09375 L 80.53125 -73.59375 C 79.96875 -74.082031 79.117188 -74.671875 77.984375 -75.359375 C 76.847656 -76.046875 74.570312 -76.957031 71.15625 -78.09375 C 67.75 -79.238281 64.296875 -79.8125 60.796875 -79.8125 C 55.273438 -79.8125 50.320312 -78.914062 45.9375 -77.125 C 41.550781 -75.34375 38.078125 -72.988281 35.515625 -70.0625 C 32.953125 -67.132812 31 -63.984375 29.65625 -60.609375 C 28.320312 -57.242188 27.65625 -53.816406 27.65625 -50.328125 C 27.65625 -42.691406 30.519531 -35.847656 36.25 -29.796875 C 41.976562 -23.742188 50.160156 -20.71875 60.796875 -20.71875 Z M 60.796875 -20.71875 "/></g></g></g><g fill="#961111" fill-opacity="1"><g transform="translate(462.838097, 109.981761)"><g><path d="M 2.796875 -50.328125 C 2.796875 -64.859375 7.75 -77.160156 17.65625 -87.234375 C 27.570312 -97.304688 39.515625 -102.34375 53.484375 -102.34375 C 67.535156 -102.34375 79.472656 -97.328125 89.296875 -87.296875 C 99.128906 -77.265625 104.046875 -64.941406 104.046875 -50.328125 C 104.046875 -35.617188 99.210938 -23.25 89.546875 -13.21875 C 79.890625 -3.1875 67.867188 1.828125 53.484375 1.828125 C 38.785156 1.828125 26.660156 -3.144531 17.109375 -13.09375 C 7.566406 -23.050781 2.796875 -35.460938 2.796875 -50.328125 Z M 27.53125 -50.328125 C 27.53125 -45.046875 28.34375 -40.226562 29.96875 -35.875 C 31.59375 -31.53125 34.4375 -27.851562 38.5 -24.84375 C 42.5625 -21.84375 47.554688 -20.34375 53.484375 -20.34375 C 62.015625 -20.34375 68.453125 -23.265625 72.796875 -29.109375 C 77.148438 -34.960938 79.328125 -42.035156 79.328125 -50.328125 C 79.328125 -58.523438 77.113281 -65.566406 72.6875 -71.453125 C 68.257812 -77.347656 61.859375 -80.296875 53.484375 -80.296875 C 45.203125 -80.296875 38.804688 -77.347656 34.296875 -71.453125 C 29.785156 -65.566406 27.53125 -58.523438 27.53125 -50.328125 Z M 27.53125 -50.328125 "/></g></g></g><g fill="#961111" fill-opacity="1"><g transform="translate(569.69215, 109.981761)"><g><path d="M 30.21875 -62.390625 L 30.21875 0 L 7.3125 0 L 7.3125 -100.515625 L 30.21875 -100.515625 L 70.1875 -38.140625 L 70.421875 -38.140625 L 70.421875 -100.515625 L 93.328125 -100.515625 L 93.328125 0 L 70.421875 0 L 30.46875 -62.390625 Z M 30.21875 -62.390625 "/></g></g></g><g fill="#961111" fill-opacity="1"><g transform="translate(670.332336, 109.981761)"><g><path d="M 60.796875 -20.71875 C 64.296875 -20.71875 67.6875 -21.242188 70.96875 -22.296875 C 74.257812 -23.347656 76.675781 -24.363281 78.21875 -25.34375 L 80.53125 -26.921875 L 90.28125 -7.4375 C 89.957031 -7.1875 89.507812 -6.859375 88.9375 -6.453125 C 88.375 -6.046875 87.054688 -5.296875 84.984375 -4.203125 C 82.910156 -3.109375 80.695312 -2.15625 78.34375 -1.34375 C 75.988281 -0.53125 72.898438 0.195312 69.078125 0.84375 C 65.265625 1.5 61.328125 1.828125 57.265625 1.828125 C 47.921875 1.828125 39.066406 -0.460938 30.703125 -5.046875 C 22.335938 -9.640625 15.59375 -15.957031 10.46875 -24 C 5.351562 -32.039062 2.796875 -40.734375 2.796875 -50.078125 C 2.796875 -57.140625 4.296875 -63.921875 7.296875 -70.421875 C 10.304688 -76.921875 14.3125 -82.484375 19.3125 -87.109375 C 24.3125 -91.742188 30.140625 -95.441406 36.796875 -98.203125 C 43.453125 -100.960938 50.273438 -102.34375 57.265625 -102.34375 C 63.765625 -102.34375 69.753906 -101.570312 75.234375 -100.03125 C 80.722656 -98.488281 84.601562 -96.945312 86.875 -95.40625 L 90.28125 -93.09375 L 80.53125 -73.59375 C 79.96875 -74.082031 79.117188 -74.671875 77.984375 -75.359375 C 76.847656 -76.046875 74.570312 -76.957031 71.15625 -78.09375 C 67.75 -79.238281 64.296875 -79.8125 60.796875 -79.8125 C 55.273438 -79.8125 50.320312 -78.914062 45.9375 -77.125 C 41.550781 -75.34375 38.078125 -72.988281 35.515625 -70.0625 C 32.953125 -67.132812 31 -63.984375 29.65625 -60.609375 C 28.320312 -57.242188 27.65625 -53.816406 27.65625 -50.328125 C 27.65625 -42.691406 30.519531 -35.847656 36.25 -29.796875 C 41.976562 -23.742188 50.160156 -20.71875 60.796875 -20.71875 Z M 60.796875 -20.71875 "/></g></g></g><g fill="#961111" fill-opacity="1"><g transform="translate(762.078197, 109.981761)"><g><path d="M 30.21875 -100.515625 L 30.21875 0 L 7.3125 0 L 7.3125 -100.515625 Z M 30.21875 -100.515625 "/></g></g></g><g fill="#961111" fill-opacity="1"><g transform="translate(799.605054, 109.981761)"><g><path d="M 64.828125 -100.515625 L 64.828125 -80.421875 L 30.21875 -80.421875 L 30.21875 -60.4375 L 63.359375 -60.4375 L 63.359375 -40.328125 L 30.21875 -40.328125 L 30.21875 -20.109375 L 64.828125 -20.109375 L 64.828125 0 L 7.3125 0 L 7.3125 -100.515625 Z M 64.828125 -100.515625 "/></g></g></g><g fill="#961111" fill-opacity="1"><g transform="translate(870.272478, 109.981761)"><g><path d="M 7.3125 -100.515625 L 43.25 -100.515625 C 52.914062 -100.515625 60.796875 -97.9375 66.890625 -92.78125 C 72.984375 -87.625 76.03125 -80.253906 76.03125 -70.671875 C 76.03125 -63.273438 74.179688 -57.078125 70.484375 -52.078125 C 66.785156 -47.085938 61.769531 -43.578125 55.4375 -41.546875 L 90.046875 0 L 60.921875 0 L 30.21875 -39.71875 L 30.21875 0 L 7.3125 0 Z M 30.21875 -55.921875 L 32.890625 -55.921875 C 35.003906 -55.921875 36.789062 -55.960938 38.25 -56.046875 C 39.71875 -56.128906 41.382812 -56.410156 43.25 -56.890625 C 45.125 -57.378906 46.628906 -58.070312 47.765625 -58.96875 C 48.898438 -59.863281 49.875 -61.164062 50.6875 -62.875 C 51.5 -64.582031 51.90625 -66.648438 51.90625 -69.078125 C 51.90625 -71.515625 51.5 -73.585938 50.6875 -75.296875 C 49.875 -77.003906 48.898438 -78.300781 47.765625 -79.1875 C 46.628906 -80.082031 45.125 -80.773438 43.25 -81.265625 C 41.382812 -81.753906 39.71875 -82.039062 38.25 -82.125 C 36.789062 -82.207031 35.003906 -82.25 32.890625 -82.25 L 30.21875 -82.25 Z M 30.21875 -55.921875 "/></g></g></g><g fill="#961111" fill-opacity="1"><g transform="translate(957.510246, 109.981761)"><g><path d="M 98.203125 -56.296875 L 98.203125 -34.484375 C 95.609375 -22.546875 89.921875 -13.507812 81.140625 -7.375 C 72.367188 -1.238281 62.582031 1.828125 51.78125 1.828125 C 38.21875 1.828125 26.660156 -3.25 17.109375 -13.40625 C 7.566406 -23.5625 2.796875 -35.828125 2.796875 -50.203125 C 2.796875 -64.816406 7.46875 -77.160156 16.8125 -87.234375 C 26.15625 -97.304688 37.8125 -102.34375 51.78125 -102.34375 C 68.113281 -102.34375 81.03125 -96.617188 90.53125 -85.171875 L 75.546875 -68.71875 C 70.179688 -77.332031 62.707031 -81.640625 53.125 -81.640625 C 46.0625 -81.640625 40.03125 -78.570312 35.03125 -72.4375 C 30.03125 -66.300781 27.53125 -58.890625 27.53125 -50.203125 C 27.53125 -41.671875 30.03125 -34.378906 35.03125 -28.328125 C 40.03125 -22.273438 46.0625 -19.25 53.125 -19.25 C 58.96875 -19.25 64.0625 -21.015625 68.40625 -24.546875 C 72.757812 -28.085938 74.9375 -32.78125 74.9375 -38.625 L 51.78125 -38.625 L 51.78125 -56.296875 Z M 98.203125 -56.296875 "/></g></g></g><g fill="#961111" fill-opacity="1"><g transform="translate(1058.515977, 109.981761)"><g><path d="M 64.828125 -100.515625 L 64.828125 -80.421875 L 30.21875 -80.421875 L 30.21875 -60.4375 L 63.359375 -60.4375 L 63.359375 -40.328125 L 30.21875 -40.328125 L 30.21875 -20.109375 L 64.828125 -20.109375 L 64.828125 0 L 7.3125 0 L 7.3125 -100.515625 Z M 64.828125 -100.515625 "/></g></g></g></g></g><g transform="matrix(1, 0, 0, 1, 1131, 21)"><g clip-path="url(#8ddfe88a51)"><g fill="#961111" fill-opacity="1"><g transform="translate(0.586298, 163.999068)"><g><path d="M 31.65625 -38.9375 C 37.476562 -38.9375 42.421875 -36.90625 46.484375 -32.84375 C 50.546875 -28.78125 52.578125 -23.835938 52.578125 -18.015625 C 52.578125 -12.304688 50.546875 -7.421875 46.484375 -3.359375 C 42.421875 0.703125 37.476562 2.734375 31.65625 2.734375 C 25.957031 2.734375 21.078125 0.703125 17.015625 -3.359375 C 12.953125 -7.421875 10.921875 -12.304688 10.921875 -18.015625 C 10.921875 -23.835938 12.953125 -28.78125 17.015625 -32.84375 C 21.078125 -36.90625 25.957031 -38.9375 31.65625 -38.9375 Z M 31.65625 -38.9375 "/></g></g></g></g></g></svg>